<?xml version="1.0" encoding="UTF-8" standalone="no"?>
<!-- Created with Inkscape (http://www.inkscape.org/) -->

<svg
   width="512"
   height="512"
   viewBox="0 0 135.46666 135.46667"
   version="1.1"
   id="svg5"
   inkscape:version="1.2.2 (b0a8486541, 2022-12-01)"
   sodipodi:docname="icon.svg"
   inkscape:export-filename="icon.png"
   inkscape:export-xdpi="24"
   inkscape:export-ydpi="24"
   xmlns:inkscape="http://www.inkscape.org/namespaces/inkscape"
   xmlns:sodipodi="http://sodipodi.sourceforge.net/DTD/sodipodi-0.dtd"
   xmlns="http://www.w3.org/2000/svg"
   xmlns:svg="http://www.w3.org/2000/svg">
  <sodipodi:namedview
     id="namedview7"
     pagecolor="#ffffff"
     bordercolor="#000000"
     borderopacity="0.25"
     inkscape:showpageshadow="2"
     inkscape:pageopacity="0.0"
     inkscape:pagecheckerboard="0"
     inkscape:deskcolor="#d1d1d1"
     inkscape:document-units="mm"
     showgrid="false"
     inkscape:zoom="0.85280761"
     inkscape:cx="236.86468"
     inkscape:cy="228.0702"
     inkscape:window-width="1396"
     inkscape:window-height="876"
     inkscape:window-x="0"
     inkscape:window-y="0"
     inkscape:window-maximized="1"
     inkscape:current-layer="layer1" />
  <defs
     id="defs2" />
  <g
     inkscape:label="Layer 1"
     inkscape:groupmode="layer"
     id="layer1">
    <rect
       style="fill:#163822;fill-opacity:1;stroke:#424242;stroke-width:1.76764;stroke-linecap:round;stroke-linejoin:round;stroke-dasharray:none;stroke-opacity:1"
       id="rect3902"
       width="103.23236"
       height="128.23236"
       x="16.117153"
       y="3.6171546"
       rx="6.8464937"
       ry="6.5192399" />
    <rect
       style="fill:none;fill-opacity:1;stroke:#9b9b9b;stroke-width:1.72515;stroke-linecap:round;stroke-linejoin:round;stroke-dasharray:none;stroke-opacity:1"
       id="rect4761"
       width="100.64998"
       height="125.27497"
       x="17.40835"
       y="5.0958467"
       rx="6.6752272"
       ry="6.3688879" />
    <path
       style="fill:none;fill-opacity:1;stroke:#9b9b9b;stroke-width:1.23738;stroke-linecap:round;stroke-linejoin:round;stroke-dasharray:none;stroke-opacity:1"
       d="M 27.242723,32.853236 H 108.05108"
       id="path4886"
       sodipodi:nodetypes="cc" />
    <path
       style="fill:none;fill-opacity:1;stroke:#9b9b9b;stroke-width:1.23738;stroke-linecap:round;stroke-linejoin:round;stroke-dasharray:none;stroke-opacity:1"
       d="M 27.242723,52.583523 H 108.05108"
       id="path4942"
       sodipodi:nodetypes="cc" />
    <path
       style="fill:none;fill-opacity:1;stroke:#9b9b9b;stroke-width:1.23738;stroke-linecap:round;stroke-linejoin:round;stroke-dasharray:none;stroke-opacity:1"
       d="M 27.242723,72.313811 H 108.05108"
       id="path4944"
       sodipodi:nodetypes="cc" />
    <path
       style="fill:none;fill-opacity:1;stroke:#9b9b9b;stroke-width:1.23738;stroke-linecap:round;stroke-linejoin:round;stroke-dasharray:none;stroke-opacity:1"
       d="M 27.242723,92.044098 H 108.05108"
       id="path4946"
       sodipodi:nodetypes="cc" />
    <path
       style="fill:none;fill-opacity:1;stroke:#9b9b9b;stroke-width:1.23738;stroke-linecap:round;stroke-linejoin:round;stroke-dasharray:none;stroke-opacity:1"
       d="M 27.242723,111.77439 H 108.05108"
       id="path4948"
       sodipodi:nodetypes="cc" />
    <path
       style="fill:#9095f1;fill-opacity:1;stroke:none;stroke-width:1.23738;stroke-linecap:round;stroke-linejoin:round;stroke-dasharray:none;stroke-opacity:1"
       id="path4824"
       d="m 32.264772,33.672751 c 1.723828,-4.706254 3.364577,-9.459729 5.366269,-14.02304 0.311025,-0.327138 0.528843,-0.841466 0.933072,-0.981418 0.274837,-0.09515 1.077004,0.436096 0.793561,0.38363 -0.697571,-0.129122 -1.526808,-1.159664 -2.050431,-0.61628 -0.47402,0.491908 0.494471,1.356877 0.652798,2.066655 0.47663,2.136716 0.501578,3.768666 0.655143,5.97356 0.386607,1.762039 -0.200847,3.646787 0.109158,5.41806 0.05912,0.337765 0.236063,0.731766 0.520355,0.844338 1.324929,0.524628 2.724045,1.18578 4.11562,0.991361 0.302148,-0.04221 2.983288,-3.74538 3.057963,-3.84582 0.881826,-1.204151 1.459167,-2.157448 2.530288,-3.095825 0.256376,-0.224605 0.528419,-0.47586 0.846541,-0.538512 0.164603,-0.03242 0.59247,0.347544 0.434253,0.286272 -2.988245,-1.15725 -2.690841,-2.286695 -2.63994,0.04285 0.0099,0.384495 -0.04664,0.778859 0.02956,1.153488 0.365974,1.799088 3.933732,2.028892 4.243091,2.028048 0.582762,-0.0016 0.87318,-0.8848 1.291852,-1.349044 2.953004,-3.274452 -0.237555,0.0369 2.655019,-2.908435 -1.048413,-2.000761 2.277443,0.178594 1.733804,-0.04654 -0.823369,-0.340993 -1.547827,-1.053593 -2.416508,-1.178992 -0.272282,-0.03931 0.184899,0.59346 0.307634,0.874564 0.110727,0.253608 0.172054,0.589724 0.390224,0.723783 1.259548,0.773957 2.626965,1.291523 3.940449,1.937284 2.894839,-1.506431 0.877126,-0.378434 4.001416,-2.371921 0.699771,-0.446495 1.370042,-0.967306 2.112077,-1.312908 0.573277,-0.267004 1.184245,-0.475371 1.802371,-0.510239 0.415511,-0.02344 1.579819,0.563144 1.212169,0.340192 -0.695516,-0.421776 -1.47447,-0.630889 -2.211703,-0.946334 0.322205,1.030433 -0.105691,2.035768 -0.06413,3.067889 0.005,0.124327 -0.0036,0.295813 0.09016,0.358816 1.061726,0.713696 2.15112,1.388253 3.29297,1.915329 0.142586,0.06581 0.285063,-0.131946 0.427595,-0.197919 0.171739,-0.06977 0.333131,-0.201146 0.515217,-0.209337 0.579863,-0.02608 1.585338,0.796168 1.22446,0.583952 -0.753097,-0.442858 -1.475716,-0.953512 -2.238962,-1.372967 -0.25959,-0.142661 0.465524,0.39405 0.723632,0.540194 1.285674,0.727964 2.600794,1.38563 3.901193,2.078443 0.422769,-0.01197 0.845863,-0.01353 1.268311,-0.03592 1.286535,-0.06821 1.120722,-0.165416 2.355572,-0.05341 0.589095,0.05343 1.163853,0.258948 1.753925,0.295609 0.328661,0.02042 0.657831,-0.0281 0.986745,-0.04214 1.087365,-0.04612 2.100501,-0.70008 3.188451,-0.724212 0.261402,-0.0058 0.988958,0.317533 0.773689,0.147609 -3.398549,-2.682678 -2.498976,-1.652016 -1.741132,-0.639797 1.227212,1.76118 0.962065,1.569825 4.103652,3.023526 0.352792,0.163248 0.761363,-0.04111 1.137908,-0.103793 1.165075,-0.19395 2.303837,-0.617835 3.454855,-0.897052 1.277217,-0.250341 2.550083,0.03613 3.826093,-0.21771 1.374603,-0.273457 1.41306,-0.396343 2.75952,-1.030735 1.678029,-1.098709 2.963529,-2.745862 4.339479,-4.259061 0.43899,-0.482781 1.03009,-1.187555 1.59324,-1.55819 -1.81422,-1.208049 -2.13376,-2.759393 -3.30916,-1.853381 -0.0879,0.06774 -0.23391,0.10605 -0.24903,0.226132 -0.0243,0.193137 0.004,0.460473 0.15018,0.55956 3.00337,2.027436 2.77682,1.852599 5.049,2.409238 1.41818,0.337969 2.77638,0.918735 4.13791,1.470526 0,0 -2.50083,-2.230513 -2.50083,-2.230513 v 0 c -1.37385,-0.5339 -2.74605,-1.085034 -4.16507,-1.445623 -0.44406,-0.125904 -1.57128,-0.824365 -1.33218,-0.377715 0.42343,0.791002 1.4023,0.960467 1.98757,1.602014 0.1055,0.115648 -0.28636,0.148597 -0.42795,0.107575 -0.19741,-0.0572 0.83399,-0.408378 0.53196,-0.34406 -0.94303,-0.726209 -1.88606,-1.452418 -2.82909,-2.178627 -0.19893,0.584662 -0.94713,1.411597 -1.2486,1.782823 -1.282275,1.579018 -2.624172,3.09777 -4.31923,4.095155 -1.303949,0.535429 -1.456667,0.698432 -2.783963,0.883608 -1.28812,0.179713 -2.597531,-0.134269 -3.871008,0.246279 -1.112908,0.304201 -2.258687,0.764612 -3.40762,0.841751 -0.368896,0.02476 -1.322667,-0.408742 -1.107136,-0.06499 0.471423,0.751879 1.29169,1.137868 2.024569,1.528212 0.243699,0.129799 -0.337114,-0.479479 -0.50567,-0.719219 -0.152854,-0.254783 -0.236108,-0.58926 -0.458565,-0.764343 -1.418611,-1.116504 -2.595677,-2.567375 -4.28664,-2.378534 -1.063568,0.118776 -2.069717,0.688743 -3.153986,0.670811 -0.328129,-0.0094 -0.657111,5.3e-4 -0.984389,-0.02819 -1.622673,-0.141993 -0.01646,-0.143235 -1.7285,-0.212748 -1.800877,-0.07312 -0.410566,0.06003 -2.327417,0.08198 -0.419367,0.0048 -0.83822,-0.03499 -1.257334,-0.0525 0.579969,0.509213 1.188746,0.97806 1.739906,1.527639 0.209902,0.209299 -0.473511,-0.335129 -0.710874,-0.501559 -1.144155,-0.802249 -2.272208,-1.635543 -3.433675,-2.404463 -0.222342,-0.147198 -0.460943,-0.273152 -0.71114,-0.339511 -0.229196,-0.06079 -0.4711,-0.06422 -0.705077,-0.03611 -0.185998,0.02234 -0.358137,0.123546 -0.537208,0.18532 -1.408839,0.338 -0.488866,0.008 2.229508,2.024819 0.08533,0.06331 -0.224208,-0.07228 -0.260963,-0.180848 -0.08038,-0.237404 -0.06954,-0.506716 -0.05792,-0.760992 0.1905,-4.165441 0.162951,1.889679 0.142478,-2.553115 -1.115678,-0.915434 -2.145479,-1.986672 -3.347033,-2.7463 -0.782693,-0.494821 -2.338664,0.25675 -2.898824,0.548087 -0.72509,0.377117 -1.385811,0.899519 -2.089211,1.327134 -2.556664,1.55427 -1.672709,1.103326 -4.175743,1.994484 0.568282,0.590308 1.101012,1.228875 1.704839,1.770928 0.189141,0.169788 -0.339624,-0.400506 -0.450346,-0.644778 -0.132086,-0.291407 -0.05421,-0.715779 -0.266424,-0.936536 -0.986246,-1.025934 -2.099689,-1.888245 -3.228435,-2.698965 -0.20285,-0.145696 -0.478289,-0.20112 -0.709391,-0.129372 -0.378084,0.117379 -0.680618,0.444377 -1.020928,0.666566 -0.430069,0.457578 -0.864582,0.909743 -1.290211,1.372738 -0.459492,0.499832 -0.883534,1.04365 -1.364998,1.515579 -0.429425,0.420921 -1.454606,0.518665 -1.361776,1.157193 0.147182,1.012383 1.25494,1.46644 1.854152,2.229607 0.150388,0.191535 -0.424355,-0.271652 -0.505466,-0.511901 -0.119797,-0.354832 -0.03476,-0.759821 -0.05214,-1.139734 0.02547,-0.413879 0.306742,-0.921365 0.07641,-1.241639 -0.826929,-1.149902 -1.945109,-1.9893 -3.012339,-2.840952 -0.135185,-0.107878 -0.345987,-0.04178 -0.492819,0.04383 -0.287799,0.167807 -0.529081,0.429397 -0.760741,0.687088 -0.798709,0.888459 -1.711869,2.277185 -2.376327,3.229278 -0.521457,0.669159 -1.006859,1.377595 -1.564369,2.007483 -0.504647,0.570161 -1.597768,0.773042 -1.614994,1.584644 -0.02117,0.997104 1.17228,1.516168 1.529875,2.425615 0.147359,0.374771 -0.740579,-0.348829 -0.864887,-0.734403 -0.150131,-0.465666 -0.240797,-5.353807 -0.244777,-5.502417 -0.09262,-1.984727 -0.125141,-3.979239 -0.438931,-5.942196 -0.113347,-0.709055 -0.0739,-1.54619 -0.488027,-2.089049 -0.970806,-1.272609 -2.235546,-2.227907 -3.487473,-3.122349 -0.252311,-0.180264 -0.635369,-0.178484 -0.892136,-0.0067 -0.38191,0.25555 -0.564433,0.780102 -0.846649,1.170155 -1.805865,4.648241 -3.330812,9.468108 -5.618605,13.849847 0,0 2.887312,1.882713 2.887312,1.882713 z" />
    <path
       style="fill:#9095f1;fill-opacity:1;stroke:none;stroke-width:1.23738;stroke-linecap:round;stroke-linejoin:round;stroke-dasharray:none;stroke-opacity:1"
       id="path4826"
       d="m 33.703895,62.875455 c 0.572215,-0.643752 1.325322,-1.536869 1.974059,-2.025766 1.658794,-1.250096 3.594029,-1.788379 5.548751,-1.158935 0.671925,0.216369 1.268221,0.668096 1.902331,1.002145 -0.299033,0.03456 -0.94317,-0.23643 -0.897101,0.103698 0.122321,0.903084 0.932431,1.504204 1.229759,2.352285 0.976137,2.784286 0.60756,5.676821 -0.320237,8.389849 -0.265843,0.777363 -0.647479,1.49603 -0.971221,2.244047 -0.349167,0.583099 -0.660597,1.198318 -1.0475,1.749295 -0.936898,1.334206 -3.111798,2.245066 1.955135,2.652033 0.454677,0.03651 0.442897,-0.921193 0.740934,-1.31612 1.761113,-2.333633 2.864482,-3.149725 5.037607,-5.169245 2.792655,-2.260737 5.543661,-4.7711 8.733394,-6.289998 0.704178,-0.335319 1.43851,-0.60986 2.190137,-0.757656 0.559593,-0.110036 1.578618,0.626414 1.703329,-0.0079 0.12525,-0.63709 -1.019364,-0.585703 -1.529048,-0.878553 1.036172,1.325797 1.23628,2.909809 1.429523,4.597217 0.03188,0.278448 -0.100417,0.65542 0.08696,0.836592 2.954,2.856235 2.456221,3.207679 3.433607,1.407694 0.17095,-0.309172 0.317365,-0.638042 0.512854,-0.927518 0.944156,-1.398086 2.244054,-2.644587 3.594538,-3.49451 0.474109,-0.298377 0.967989,-0.553562 1.451983,-0.830343 1.63157,-0.976746 3.455251,-1.392338 5.152319,-2.168206 0.156039,-0.07134 0.568555,-0.206372 0.426089,-0.308371 -3.487794,-2.497131 -2.600756,-2.451044 -5.014515,-1.349846 -0.486054,0.237237 -2.527399,1.172168 -2.962818,1.619452 -0.225816,0.231968 -0.594033,0.732357 -0.362037,0.95618 1.167275,1.126154 2.540466,2.03982 3.999456,2.553098 0.746258,0.262538 6.675072,-0.66848 6.794219,-0.684864 3.761341,-0.371558 7.463451,-1.84345 11.27744,-1.476179 0.764,0.07357 1.478327,0.509986 2.241955,0.58847 0.539494,0.05544 -1.103945,-0.851971 -1.560652,-0.518447 -0.387606,0.283064 0.07697,1.049234 0.115451,1.573852 -0.231433,0.628031 -0.378205,1.306488 -0.694295,1.884097 -0.72123,1.317936 -2.028711,2.645819 -3.075082,3.585512 -0.644086,0.578419 -2.373978,1.966119 -3.251431,2.323424 -0.242101,0.09858 -0.513893,0.0034 -0.770841,0.0051 1.090562,0.396107 2.129194,1.257695 3.271684,1.188321 0.593535,-0.03604 0.805565,-1.003449 1.244392,-1.462545 1.256307,-1.314334 3.449649,-3.41433 5.153568,-3.833381 0.468136,-0.115131 0.957422,0.02203 1.436135,0.03305 3.050719,1.575108 -0.748239,-0.395129 -0.851378,-0.393371 -0.329431,0.0056 0.346765,0.645889 0.469721,0.995941 0.216414,0.616117 0.203024,1.323079 0.44762,1.925205 0.107598,0.264881 0.298093,0.474175 0.447138,0.711264 1.468077,1.00042 2.617375,2.26644 4.249162,2.606955 2.093081,0.436772 4.276321,-0.298832 6.304761,-0.802852 1.52162,-0.450281 2.02173,-0.517189 3.43669,-1.240859 0.45864,-0.234564 0.88826,-0.537393 1.3324,-0.80609 0,0 -2.63107,-1.968694 -2.63107,-1.968694 v 0 c -0.42144,0.267389 -0.8269,0.570906 -1.26434,0.802166 -1.31139,0.693293 -1.93536,0.808412 -3.34694,1.243721 -1.81919,0.421412 -3.594244,0.845099 -5.462878,0.659886 -0.33146,-0.03285 -0.660001,-0.108945 -0.98182,-0.205573 -0.254382,-0.07638 -0.952824,-0.489377 -0.740555,-0.311581 0.680342,0.569843 1.441269,1.001385 2.1619,1.502079 -0.174596,-0.189628 -0.400814,-0.332023 -0.52379,-0.568889 -0.165289,-0.318351 -0.386263,-1.735251 -0.4685,-2.010357 -0.115828,-0.387502 -0.164756,-0.858038 -0.438723,-1.121317 -2.586762,-2.485856 -2.559965,-2.343234 -4.696949,-3.130647 -0.47483,0.04768 -0.967703,-0.01289 -1.424487,0.143056 -1.250486,0.426921 -2.420518,1.497626 -3.432145,2.35979 -0.59928,0.510738 -1.188581,1.036896 -1.772315,1.570722 -0.500325,0.457546 -1.613108,0.685905 -1.479419,1.402988 0.237131,1.271932 1.520852,1.932027 2.28128,2.89804 0.215014,-0.08762 0.444378,-0.138372 0.645046,-0.262871 0.898622,-0.557527 2.418381,-1.796093 3.157319,-2.469232 1.065251,-0.970386 2.452744,-2.338389 3.231752,-3.650709 0.36091,-0.607991 0.56095,-1.322594 0.841425,-1.983891 -0.0063,-0.607319 0.336543,-1.371238 -0.01894,-1.821958 -1.002872,-1.271516 -2.363708,-2.142863 -3.705687,-2.900423 -0.639897,-0.36123 -1.400569,-0.36262 -2.113725,-0.38469 -3.758473,-0.116315 -7.366199,1.414302 -11.097767,1.643537 -1.378735,0.114232 -2.754043,0.317495 -4.136205,0.342694 -1.033899,0.01886 -2.232032,-0.860369 -3.096623,-0.21082 -0.531773,0.399508 0.80786,1.215485 1.398023,1.486941 0.220145,0.101261 -0.09526,-0.617893 0.07169,-0.810918 0.451168,-0.521634 2.427095,-1.326811 2.944371,-1.559909 2.142668,-0.674082 2.27027,-0.186296 -0.485848,-2.691462 -0.08142,-0.07402 -0.0138,0.278809 -0.104803,0.336397 -0.450214,0.28495 -0.955341,0.437649 -1.438345,0.640293 -4.296422,1.802564 0.533868,-0.32633 -3.711045,1.570134 -0.522542,0.265133 -1.059805,0.495091 -1.567633,0.795397 -1.294648,0.765593 -2.740392,2.346384 -3.70858,3.585809 -0.215675,0.276097 -0.401584,0.580891 -0.602375,0.871339 -0.866408,1.077217 -0.766407,0.788858 2.449943,2.200461 0.251829,0.110525 -0.175961,-0.585885 -0.228649,-0.888788 -0.09207,-0.529298 -0.110848,-1.073143 -0.204624,-1.60205 -0.348168,-1.963711 -0.302853,-1.570642 -1.112852,-3.294931 -1.312081,-0.830424 -2.526787,-1.906434 -3.936245,-2.491275 -0.851746,-0.353423 -3.192965,0.788953 -3.72292,1.082277 -3.088882,1.709668 -5.754883,4.268929 -8.567195,6.471745 -1.771093,1.496001 -3.887463,3.185467 -5.537,4.911325 -0.446443,0.467096 -1.536109,0.937011 -1.225871,1.531444 0.5883,1.12721 1.883678,1.683237 3.015105,1.896806 1.050859,0.198361 0.830384,-3.523266 1.819338,-3.007957 0.312025,-0.775027 0.675267,-1.525618 0.936076,-2.325083 0.90883,-2.785853 1.355059,-5.741528 0.44206,-8.623992 -0.274976,-0.868134 -0.590239,-1.782408 -1.168897,-2.425579 -1.240133,-1.378387 -2.784879,-2.34444 -4.177318,-3.516661 -0.655675,-0.307659 -1.277841,-0.734426 -1.967025,-0.922975 -3.232496,-0.884356 -5.634913,0.998032 -7.971404,3.224387 0,0 2.859247,2.006581 2.859247,2.006581 z" />
    <path
       style="fill:#9095f1;fill-opacity:1;stroke:none;stroke-width:1.23738;stroke-linecap:round;stroke-linejoin:round;stroke-dasharray:none;stroke-opacity:1"
       id="path4828"
       d="m 105.13324,101.99013 c -1.92884,-2.362694 -4.19573,-3.755079 -6.764039,-5.222143 -0.998436,-0.570324 -2.751134,-1.113466 -3.885092,-1.138755 -0.560919,-0.0125 -1.111348,0.177096 -1.667021,0.265645 -0.422589,0.328178 -0.910257,0.567059 -1.267766,0.984537 -1.224363,1.429736 -1.165478,3.535646 -1.084814,5.368036 0.03736,0.84865 0.131036,1.69286 0.188995,2.54 0.06173,0.90234 0.113387,1.80556 0.170081,2.70834 0.04056,1.67316 0.165132,3.31308 -0.103352,4.9751 -0.156492,0.96876 -0.416946,2.21067 -1.353897,2.63471 -0.739176,0.33454 -1.724604,-0.21486 -2.36516,-0.45946 -0.412237,-0.26486 -1.693306,-0.65454 -1.236715,-0.79458 0.537287,-0.16479 1.175176,1.16427 1.553576,0.6974 0.361458,-0.44598 -0.660771,-0.96461 -0.8938,-1.51145 -0.470762,-1.10469 -0.673068,-2.45443 -0.719934,-3.66886 -0.02118,-0.5487 0.04164,-1.09744 0.06247,-1.64614 0.214305,-0.89492 0.242756,-1.4025 0.710708,-2.13084 0.09275,-0.14436 0.482906,-0.2334 0.360288,-0.34477 -0.915502,-0.83157 -1.921101,-1.57073 -3.008486,-2.06064 -0.270664,-0.12194 -0.538522,0.26093 -0.822133,0.33481 -0.523069,0.13628 -1.059194,0.19554 -1.588794,0.2933 -1.95806,0.22662 -3.926216,0.20268 -5.89089,0.20199 -0.453115,-1.6e-4 -2.322749,0.0177 -2.856318,-0.0267 -0.430709,-0.0358 -0.856889,-0.12386 -1.285334,-0.1858 -0.405255,-0.0958 -0.810511,-0.19164 -1.215764,-0.28748 0,0 2.551896,2.2102 2.551896,2.2102 v 0 c 0.405857,0.0846 0.811716,0.16927 1.217574,0.25389 0.437067,0.0526 0.872246,0.13339 1.311204,0.15769 0.461828,0.0255 2.373777,-0.057 2.750583,-0.0664 1.981217,-0.0496 3.964162,-0.0553 5.942239,-0.21425 0.586698,-0.0723 1.175984,-0.12086 1.760095,-0.21673 0.335267,-0.0551 1.211753,0.0626 0.995053,-0.23551 -2.838289,-3.90437 -3.158138,-2.09729 -3.728515,0.67082 -0.04749,1.90314 -0.0664,3.72435 0.606325,5.52603 0.212704,0.56964 0.418932,1.19543 0.831494,1.5962 1.987116,1.93035 3.154198,2.53354 5.106145,3.66624 0.846326,0.24596 1.708528,0.71606 2.58544,0.15748 0.917189,-0.58422 1.150359,-1.93635 1.286096,-2.96843 0.214684,-1.63234 0.09953,-3.42201 0.05787,-5.05334 -0.08545,-1.72185 -0.21794,-3.44143 -0.258504,-5.16545 -0.03914,-1.66328 -0.101914,-3.70807 1.015138,-5.012708 0.323053,-0.377307 0.769768,-0.58293 1.154655,-0.874396 1.677216,-0.246961 1.649771,-0.421449 3.421072,0.142593 0.66633,0.21218 1.256851,0.722473 1.940781,0.840218 0.32948,0.05672 -1.061476,-0.915592 -0.824001,-0.647952 0.396491,0.44685 0.870311,0.793718 1.305461,1.190577 0.28574,0.336993 0.57149,0.673988 0.85724,1.010988 0,0 3.07786,1.50592 3.07786,1.50592 z" />
    <path
       style="fill:#9095f1;fill-opacity:1;stroke:none;stroke-width:1.23738;stroke-linecap:round;stroke-linejoin:round;stroke-dasharray:none;stroke-opacity:1"
       id="path4830"
       d="m 61.785252,100.03499 c -0.07588,2.32978 0.733987,4.47243 1.06868,6.74554 0.152067,1.0328 0.233336,2.07763 0.350005,3.11644 0.08654,2.28724 0.622972,6.19456 -1.106633,8.00507 -1.09583,1.14708 -2.714957,0.88717 -3.969169,0.50187 -0.850085,-0.26115 -1.631923,-0.75567 -2.447886,-1.1335 0.01707,-0.0293 0.07458,-0.0651 0.05118,-0.0879 -0.669554,-0.65345 -1.401926,-1.21975 -2.066884,-1.87932 -0.870866,-0.86384 -2.117892,-2.30246 -2.86588,-3.36841 -0.297,-0.42324 -0.598766,-0.85212 -0.813444,-1.33625 -0.161041,-0.36318 -0.199471,-0.78196 -0.299206,-1.17293 0.26711,-1.7433 0.08472,-1.2482 0.929717,-3.08252 0.331309,-0.7192 0.696984,-1.41703 1.05633,-2.11835 0.748977,-1.46176 1.500996,-2.52726 1.806619,-4.22069 0.110358,-0.611486 0.01981,-1.248611 0.02972,-1.872914 -0.245975,-0.513744 -0.397864,-1.103488 -0.737926,-1.541229 -1.111916,-1.431301 -5.368516,-3.165136 -5.804358,-3.305544 -0.689927,-0.222264 -1.434381,0.0091 -2.149336,0.06644 -1.65635,0.132851 -2.377861,0.331494 -3.975729,0.663604 -0.620646,0.298427 -2.56079,0.463606 -2.469701,1.78093 0.04729,0.684002 0.468266,0.726738 0.772949,1.198217 0.112445,0.174002 0.155225,0.394765 0.232836,0.592143 -0.102312,0.302638 -0.163041,0.628339 -0.306934,0.907916 -0.621238,1.207047 -1.61146,2.109067 -2.495846,3.043587 -0.254084,0.26849 -0.530848,0.51277 -0.755748,0.81345 -0.239832,0.32067 -0.420549,0.69362 -0.630824,1.04042 -0.155287,0.3999 -0.327562,0.7917 -0.465857,1.1997 -0.451992,1.33347 -0.536157,2.83451 -1.123041,4.10569 -0.124881,0.27048 -0.296298,0.50924 -0.444444,0.76385 -0.462054,0.59875 -0.997833,1.18437 -1.76102,0.87348 -0.223033,-0.0909 -0.815918,-0.54415 -0.597566,-0.43944 2.430381,1.16544 2.677264,2.20418 2.032644,0.55589 0.0076,-0.34053 -0.07857,-0.79284 0.253372,-1.01998 0.09509,-0.0651 0.221362,0.01 0.332042,0.0148 -0.858943,-0.50903 -1.676906,-1.1214 -2.576828,-1.5271 -0.195908,-0.0883 0.303514,0.34224 0.409968,0.55027 0.132638,0.25919 0.198933,0.55596 0.298399,0.83396 0.269568,0.97273 0.203532,1.95678 0.139342,2.95315 0,0 2.927668,1.73811 2.927668,1.73811 v 0 c 0.06044,-1.03236 0.132003,-2.06623 -0.07466,-3.08758 -0.04892,-0.1918 -0.307264,-1.41919 -0.542584,-1.59524 -0.272481,-0.20384 -3.521275,-3.58826 -4.130711,-1.23492 -0.06403,0.24725 -0.03389,0.51432 -0.05085,0.77148 0.643351,2.24655 0.103925,0.93836 3.577285,3.42368 0.449551,0.32166 0.931502,0.4083 1.438776,0.21026 0.558804,-0.21818 0.795032,-0.64114 1.171343,-1.11541 0.449275,-0.80826 0.538825,-0.86427 0.812667,-1.79598 0.417835,-1.42162 0.449706,-2.98668 1.163981,-4.29532 0.203085,-0.32481 0.384063,-0.66935 0.609262,-0.97444 0.219849,-0.29785 0.477711,-0.55607 0.721474,-0.82842 1.156389,-1.29198 2.474308,-2.49242 3.094955,-4.255899 -0.05394,-0.263078 -0.03635,-0.560367 -0.161828,-0.789235 -0.371659,-0.677968 -0.574854,-0.160863 -0.889857,-0.827101 -0.487266,-1.030565 1.783798,-1.428393 1.987802,-1.586201 1.499169,-0.333846 2.328025,-0.579977 3.889409,-0.657237 0.719124,-0.03558 1.587741,0.545445 2.159043,0.044 0.355565,-0.312083 -1.238916,-1.001322 -0.829903,-1.210604 0.772035,-0.395026 1.960266,1.973638 2.174801,2.329725 0.02984,0.6006 0.168603,1.207081 0.08953,1.801797 -0.291811,2.194815 -1.902087,4.399535 -2.882464,6.271665 -1.035841,1.97806 -0.769614,1.28846 -1.167139,3.24957 0.109744,0.44094 0.147517,0.91428 0.329237,1.32285 0.398225,0.89533 1.653943,2.42397 2.20282,3.06017 2.538773,2.94268 5.328008,5.23875 8.618534,7.06275 1.61714,0.7062 3.156831,1.69105 4.98135,1.34524 3.712252,-0.70359 2.956292,-6.32317 2.847829,-9.28833 -0.07854,-1.02662 -0.131789,-2.0562 -0.23559,-3.07988 -0.08419,-0.83036 -0.208452,-1.65488 -0.328127,-2.47952 -0.0176,-0.12133 -0.367118,-2.12491 -0.396415,-2.58404 -0.01165,-0.18261 0.02937,-1.14659 0.03872,-1.38895 0,0 -3.045896,-1.77733 -3.045896,-1.77733 z" />
  </g>
</svg>
