<?xml version="1.0" encoding="UTF-8" standalone="no"?>
<!-- Created with Inkscape (http://www.inkscape.org/) -->

<svg
   width="1000"
   height="1000"
   viewBox="0 0 264.58333 264.58333"
   version="1.1"
   id="svg5"
   inkscape:version="1.2.2 (b0a8486541, 2022-12-01)"
   sodipodi:docname="giduba.svg"
   xmlns:inkscape="http://www.inkscape.org/namespaces/inkscape"
   xmlns:sodipodi="http://sodipodi.sourceforge.net/DTD/sodipodi-0.dtd"
   xmlns="http://www.w3.org/2000/svg"
   xmlns:svg="http://www.w3.org/2000/svg">
  <sodipodi:namedview
     id="namedview7"
     pagecolor="#ffffff"
     bordercolor="#000000"
     borderopacity="0.25"
     inkscape:showpageshadow="2"
     inkscape:pageopacity="0.0"
     inkscape:pagecheckerboard="0"
     inkscape:deskcolor="#d1d1d1"
     inkscape:document-units="px"
     showgrid="false"
     inkscape:zoom="0.32260783"
     inkscape:cx="54.245429"
     inkscape:cy="463.41095"
     inkscape:window-width="1396"
     inkscape:window-height="876"
     inkscape:window-x="0"
     inkscape:window-y="0"
     inkscape:window-maximized="1"
     inkscape:current-layer="text1570" />
  <defs
     id="defs2">
    <rect
       x="22.096123"
       y="-29.936684"
       width="222.3868"
       height="332.15463"
       id="rect4892" />
  </defs>
  <g
     inkscape:label="Layer 1"
     inkscape:groupmode="layer"
     id="layer1">
    <rect
       style="fill:#ad896c;fill-opacity:1;stroke:#4a3728;stroke-width:6.6552;stroke-linecap:round;stroke-linejoin:round;stroke-opacity:1"
       id="rect788"
       width="214.78352"
       height="257.92813"
       x="24.899902"
       y="3.3275981"
       rx="34.966129"
       ry="32.304996" />
    <g
       aria-label="ð’„€ "
       transform="scale(1.1818296,0.84614567)"
       id="text1570"
       style="font-size:27.1845px;font-family:'Noto Sans Cuneiform';-inkscape-font-specification:'Noto Sans Cuneiform';fill:#33261c;stroke-width:2.37366;stroke-linecap:round;stroke-linejoin:round">
      <path
         d="m 67.019889,132.74577 q -0.743327,-11.89322 -1.486652,-21.34408 -0.637136,-9.45086 -1.380465,-17.096505 -9.026101,0.743329 -15.185089,1.699031 -6.052801,0.849516 -7.85802,1.699032 0.318555,-3.079492 0.530945,-6.158988 0.212383,-3.185683 0.212383,-6.158988 0,-2.973305 -0.212383,-5.734227 -0.212382,-2.867117 -0.530945,-5.309473 2.017598,0.955703 7.645641,1.911411 5.73423,0.955703 13.804629,1.805219 -0.849517,-7.433263 -1.911411,-13.27368 -0.955707,-5.840422 -2.22998,-11.149895 -1.168082,-5.309473 -2.760926,-10.937511 5.415665,1.274273 11.149895,1.274273 5.73423,0 11.787027,-1.274273 -0.212383,0.637136 -0.212383,0.849516 5.415664,-0.849516 10.618945,-2.336168 5.203285,-1.592845 9.344672,-3.291876 -0.212383,0.955706 -0.318555,2.22998 -0.106171,1.274274 -0.106171,2.867115 0,4.247577 0.637136,10.300378 0.637137,6.052797 1.592848,13.273679 1.06189,7.114696 2.22997,14.654145 8.49516,0.530945 17.0965,1.061894 8.70754,0.530945 16.88413,0.955703 -2.33617,-3.398059 -4.88471,-7.114691 -2.44236,-3.82282 -4.77853,-7.114691 -2.33617,-3.398063 -4.14139,-5.840422 -1.80522,-2.548547 -2.65473,-3.398063 2.76092,-0.849515 5.20328,-2.017597 2.44236,-1.274274 4.9909,-3.079496 0,1.274273 0.95571,4.459956 0.9557,3.079497 2.33616,7.327075 1.38047,4.141386 2.97331,8.601344 1.69903,4.459957 3.0795,8.388964 l 6.90231,0.318556 0.10617,-0.106173 0.10622,0.106173 4.56614,0.212382 q -2.54855,-3.82282 -5.52186,-8.495156 -2.9733,-4.672336 -5.84042,-9.026101 -2.86711,-4.459958 -5.09709,-7.645641 -2.12378,-3.185684 -2.9733,-4.141391 2.76092,-0.849515 5.20328,-2.017597 2.44236,-1.274274 4.77853,-3.079497 0.10617,1.274274 1.38045,5.203285 1.27428,3.929008 3.18569,9.132293 1.91141,5.203282 3.92901,10.618946 2.12379,5.415659 3.71664,9.663238 l 12.21179,0.637137 q -2.1238,-3.291876 -4.88472,-7.539449 -2.65474,-4.353771 -5.52185,-8.813727 -2.76094,-4.566145 -5.41567,-8.495156 -2.54855,-4.035199 -4.45995,-6.796125 -1.80522,-2.867113 -2.65474,-3.610442 2.76092,-0.849516 5.30947,-2.017597 2.54855,-1.168086 4.88472,-2.867117 0.10617,1.061894 1.16808,4.353769 1.16809,3.291871 2.86712,7.964207 1.80522,4.566148 3.82282,9.769429 2.0176,5.097094 3.82282,9.875622 1.9114,4.672332 3.18568,8.176586 l 8.07039,0.424757 0.31856,-0.318554 0.53095,0.424758 q 1.16808,0 2.22998,0.106172 1.06189,0 2.0176,0.106171 -1.91141,-2.760926 -4.88471,-7.433258 -2.86712,-4.778526 -6.26519,-10.087999 -3.39805,-5.415661 -6.58374,-10.406567 -3.0795,-5.097093 -5.41566,-8.601343 -2.33617,-3.504254 -3.18568,-4.35377 2.76092,-0.955703 5.20328,-2.123789 2.54855,-1.168082 4.9909,-2.973305 0.10618,0.955708 1.0619,4.035199 1.0619,3.079497 2.76093,7.539453 1.69902,4.353767 3.71662,9.344672 2.0176,4.990902 3.92902,9.875618 2.01759,4.884714 3.61044,8.919913 1.59283,3.929008 2.44235,6.265176 v 2.442359 q -0.9557,0.106173 -2.12379,0.106173 -1.16808,0 -2.33617,0 -2.86711,7.433261 -4.45995,13.167499 -1.59284,5.73422 -2.33617,10.40656 -0.74333,4.56615 -1.0619,8.49515 -0.31855,3.92902 -0.74332,7.85802 -5.84042,-5.41566 -12.53035,-9.13229 -6.68994,-3.71663 -13.48607,-6.58375 4.24758,-2.76092 8.60135,-5.52184 4.45995,-2.76093 9.66324,-6.902319 5.20328,-4.247577 11.68084,-11.574652 l -26.33498,1.061895 q -3.39807,9.132293 -4.99091,15.928416 -1.59284,6.79613 -2.22998,12.31798 -0.63713,5.41566 -1.16808,10.40656 -5.84042,-5.41566 -12.53036,-9.13229 -6.68994,-3.71663 -13.48606,-6.58375 3.92902,-2.65472 8.17659,-5.41566 4.35377,-2.76092 9.23849,-6.79612 4.9909,-4.14139 10.83132,-10.406566 l -37.06012,1.805219 q 1.80522,10.725137 3.39806,20.388377 1.69903,9.66324 2.44235,15.71604 l -2.22997,0.42475 q -1.16811,-3.71658 -3.18571,-9.34462 -1.91141,-5.73423 -4.24757,-12.53036 -2.336172,-6.902308 -4.884719,-14.123191 -6.371367,0.424757 -12.424163,0.849516 -6.052801,0.318554 -11.574653,0.849515 -0.424758,7.96421 -0.849516,17.62745 -0.424757,9.66324 -0.743324,21.34408 z M 91.124893,80.50056 Q 88.576347,73.385866 86.027799,67.014498 83.585444,60.536944 81.355463,55.43985 79.125487,50.236565 77.426456,47.157072 75.833612,53.52844 74.559339,61.17408 q -1.168083,7.53945 -2.123789,17.839828 4.353769,0.424758 9.026105,0.743325 4.778524,0.318554 9.663238,0.743327 z"
         style="font-family:Assyrian;-inkscape-font-specification:Assyrian;text-align:center;text-anchor:middle;stroke-width:9.27211"
         id="path1653" />
    </g>
    <text
       xml:space="preserve"
       transform="matrix(0.26458333,0,0,0.26458333,-4.9126943e-4,0)"
       id="text4890"
       style="font-style:normal;font-variant:normal;font-weight:normal;font-stretch:normal;font-size:37.3333px;font-family:'Noto Sans Cuneiform';-inkscape-font-specification:'Noto Sans Cuneiform';white-space:pre;shape-inside:url(#rect4892);display:inline;fill:#140f0b;fill-opacity:1;stroke:none;stroke-width:5;stroke-linecap:round;stroke-linejoin:round;stroke-opacity:1" />
    <path
       style="fill:#866549;fill-opacity:1;stroke:none;stroke-width:3.2318;stroke-linecap:round;stroke-linejoin:round;stroke-dasharray:none;stroke-opacity:1"
       id="path5047"
       d="m 56.118703,26.432756 c 15.466074,-1.24455 31.054305,-1.28787 46.583297,-1.417111 17.57714,-0.100026 35.15617,-0.02477 52.71159,0.742114 11.49783,0.779906 22.99825,1.531323 34.5036,2.233244 7.68791,0.449693 15.38926,0.691015 23.09078,0.910371 3.54193,-0.113613 6.92518,0.768057 10.35861,1.326285 0.45529,0.04848 0.91047,0.09696 1.3657,0.145433 0,0 -16.13201,-9.965964 -16.13201,-9.965964 v 0 c -0.43868,-0.06584 -0.87736,-0.131572 -1.31604,-0.197377 -3.36325,-0.540178 -6.73038,-1.080442 -10.18159,-0.852402 -7.40148,0.03754 -14.80393,-0.107778 -22.19306,-0.472336 -11.33816,-0.575904 -22.65223,-1.449143 -34.00197,-1.878218 -17.19591,-0.386243 -34.39077,-0.07801 -51.589583,0.01382 -16.488515,0.03535 -32.980589,0.02547 -49.466965,-0.182917 0,0 16.267641,9.59537 16.267641,9.59537 z" />
    <path
       style="fill:#866549;fill-opacity:1;stroke:none;stroke-width:3.2318;stroke-linecap:round;stroke-linejoin:round;stroke-dasharray:none;stroke-opacity:1"
       id="path1495"
       d="m 56.118703,137.19637 c 15.466074,-1.24455 31.054305,-1.28787 46.583297,-1.41711 17.57714,-0.10002 35.15617,-0.0246 52.71159,0.74212 11.49783,0.7799 22.99825,1.53132 34.5036,2.23324 7.68791,0.44969 15.38926,0.69102 23.09078,0.91037 3.54193,-0.11364 6.92518,0.76806 10.35861,1.32628 0.45529,0.0485 0.91047,0.097 1.3657,0.14543 0,0 -16.13201,-9.96596 -16.13201,-9.96596 v 0 c -0.43868,-0.0658 -0.87736,-0.13157 -1.31604,-0.19739 -3.36325,-0.54018 -6.73038,-1.08044 -10.18159,-0.8524 -7.40148,0.0375 -14.80393,-0.10777 -22.19306,-0.47234 -11.33816,-0.57591 -22.65223,-1.44914 -34.00197,-1.87822 -17.19591,-0.38625 -34.39077,-0.078 -51.589583,0.0136 -16.488515,0.0355 -32.980589,0.0254 -49.466965,-0.18293 0,0 16.267641,9.59537 16.267641,9.59537 z" />
    <path
       style="fill:#866549;fill-opacity:1;stroke:none;stroke-width:3.2318;stroke-linecap:round;stroke-linejoin:round;stroke-dasharray:none;stroke-opacity:1"
       id="path1497"
       d="m 56.118703,247.95997 c 15.466074,-1.24454 31.054305,-1.28786 46.583297,-1.41711 17.57714,-0.10002 35.15617,-0.0246 52.71159,0.74212 11.49783,0.7799 22.99825,1.53132 34.5036,2.23324 7.68791,0.4497 15.38926,0.69102 23.09078,0.91037 3.54193,-0.11363 6.92518,0.76806 10.35861,1.32629 0.45529,0.0485 0.91047,0.097 1.3657,0.14543 0,0 -16.13201,-9.96597 -16.13201,-9.96597 v 0 c -0.43868,-0.0658 -0.87736,-0.13156 -1.31604,-0.19739 -3.36325,-0.54018 -6.73038,-1.08043 -10.18159,-0.85239 -7.40148,0.0375 -14.80393,-0.10777 -22.19306,-0.47234 -11.33816,-0.57591 -22.65223,-1.44915 -34.00197,-1.87822 -17.19591,-0.38625 -34.39077,-0.078 -51.589583,0.0137 -16.488515,0.0355 -32.980589,0.0254 -49.466965,-0.18294 0,0 16.267641,9.59537 16.267641,9.59537 z" />
    <g
       aria-label="ð’¾ð’€"
       transform="matrix(3.5976964,0,0,4.2412664,3.980896e-6,-1.037465e-6)"
       id="text1503"
       style="font-size:20.7944px;font-family:Akkadian;-inkscape-font-specification:Akkadian;text-align:center;text-anchor:middle;fill:#33261c;stroke-width:0.898906;stroke-linecap:round;stroke-linejoin:round">
      <path
         d="m 21.019449,54.818221 q 0.249533,-1.060514 0.249533,-2.183412 0,-1.122897 -0.249533,-2.308178 l 0.291122,0.08318 q -0.02079,-0.540655 -0.06238,-1.206076 -0.02079,-0.66542 -0.06238,-1.434813 -0.603037,0.02079 -1.185281,0.04159 -0.561448,0.02079 -1.102103,0.06238 -0.187149,1.455608 -0.291121,2.848832 -0.103972,1.393225 -0.103972,2.370562 h -0.436683 q 0,-0.956542 -0.103972,-2.328973 -0.08318,-1.351636 -0.249533,-2.765655 -0.707009,0.08318 -1.37243,0.18715 -0.665421,0.103972 -1.268458,0.228738 -0.145561,1.330842 -0.249533,2.557711 -0.08318,1.247664 -0.08318,2.121029 h -0.436682 q 0,-0.85257 -0.08318,-2.017057 -0.06238,-1.164486 -0.207944,-2.432944 -1.268458,0.291121 -2.183412,0.603037 -0.914953,0.311916 -1.455607,0.499066 0.249532,-1.060515 0.249532,-2.183412 0,-1.122898 -0.249532,-2.308179 0.499065,0.166356 1.330841,0.457477 0.85257,0.291122 2.017057,0.582243 -0.145561,-1.081308 -0.353505,-1.975467 -0.207944,-0.914954 -0.436682,-1.476403 0.727804,0.145561 1.55958,0.145561 0.374299,0 0.769392,-0.02079 0.415888,-0.04159 0.852571,-0.124767 -0.207944,0.51986 -0.436683,1.55958 -0.207944,1.018926 -0.374299,2.245795 0.51986,0.103972 1.081309,0.18715 0.582243,0.08318 1.206075,0.166355 -0.166355,-1.289253 -0.395094,-2.391356 -0.228738,-1.122897 -0.499065,-1.767524 0.727804,0.145561 1.55958,0.145561 0.374299,0 0.769393,-0.02079 0.415888,-0.04159 0.85257,-0.124767 -0.228738,0.582243 -0.457477,1.74673 -0.228738,1.143692 -0.415888,2.536916 0.51986,0.04159 1.03972,0.08318 0.540655,0.02079 1.102103,0.02079 -0.08318,-1.37243 -0.228738,-2.848832 -0.124766,-1.497197 -0.291122,-2.828039 -2.640888,0.06238 -4.699534,0.457477 -2.037851,0.374299 -3.45187,0.810982 -1.393225,0.436682 -2.100234,0.686215 0.249532,-1.060514 0.249532,-2.183412 0,-1.122898 -0.249532,-2.308178 0.707009,0.249533 2.100234,0.686215 1.393225,0.436682 3.410281,0.831776 2.037851,0.374299 4.67874,0.457477 -0.145561,-0.977337 -0.311916,-1.74673 -0.145561,-0.790187 -0.311916,-1.206075 0.270327,0.04159 0.540655,0.08318 0.270327,0.04159 0.540654,0.06238 0.249533,-1.060515 0.249533,-2.183412 0,-1.122898 -0.249533,-2.308179 2.495328,0.686216 6.75818,1.310048 4.283646,0.603037 10.272433,0.66542 l -0.04159,-0.207944 q 1.060515,0.249533 2.183412,0.249533 1.122898,0 2.308178,-0.249533 -0.478271,1.725936 -0.935748,4.533179 -0.457476,2.78645 -0.748598,6.42547 -0.291122,3.63902 -0.291122,7.922666 h -0.540654 q 0,-0.395094 0,-0.769393 0,-0.374299 -0.02079,-0.727804 -3.139955,0 -6.009582,0.166355 -2.848832,0.18715 -5.323366,0.457477 -2.453739,0.291122 -4.387618,0.644627 -1.933879,0.353504 -3.223132,0.707009 z m 4.720329,-17.30094 q 0.311916,0 0.644626,-0.02079 0.33271,-0.02079 0.665421,-0.06238 -0.02079,-0.02079 -0.02079,-0.06238 l 0.166356,0.04159 0.187149,-0.04159 q -0.02079,0.02079 -0.02079,0.06238 0.311916,0.04159 0.623832,0.06238 0.311916,0.02079 0.644626,0.02079 0.291122,0 0.603038,-0.02079 0.311916,-0.02079 0.644626,-0.06238 -0.02079,-0.02079 -0.02079,-0.06238 l 0.166355,0.04159 0.187149,-0.04159 q -0.02079,0.02079 -0.02079,0.06238 0.311916,0.04159 0.623832,0.06238 0.311916,0.02079 0.644626,0.02079 0.291122,0 0.603038,-0.02079 0.311916,-0.02079 0.644626,-0.06238 -0.02079,-0.02079 -0.02079,-0.06238 l 0.166355,0.04159 0.18715,-0.04159 q -0.02079,0.02079 -0.02079,0.06238 0.311916,0.04159 0.623832,0.06238 0.311916,0.02079 0.644627,0.02079 0.291121,0 0.603037,-0.02079 0.311916,-0.02079 0.644627,-0.06238 -0.02079,-0.02079 -0.02079,-0.06238 l 0.166355,0.04159 0.18715,-0.04159 q -0.02079,0.02079 -0.02079,0.06238 0.291121,0.04159 0.582243,0.06238 0.311916,0.02079 0.623832,0.02079 0.33271,0 0.686215,-0.02079 0.353505,-0.02079 0.727804,-0.08318 -0.06238,-0.311916 -0.124766,-0.623832 -0.06238,-0.311916 -0.145561,-0.582243 -4.325235,0.04159 -7.7979,0.395093 -3.45187,0.332711 -5.988787,0.810982 0.33271,0.06238 0.665421,0.08318 0.33271,0.02079 0.665421,0.02079 z m -0.18715,13.724303 Q 25.46945,49.952332 25.365478,48.351163 25.261506,46.7292 25.13674,45.065648 25.032768,43.381302 24.887207,41.86331 q -0.124766,-1.538785 -0.291121,-2.703271 -0.166356,-1.164487 -0.3743,-1.705141 -0.914953,0.166355 -1.725935,0.353505 -0.790187,0.187149 -1.455608,0.374299 0.478272,0.02079 0.998132,0 0.519859,-0.04159 1.081308,-0.145561 -0.166355,0.395094 -0.33271,1.247664 -0.145561,0.85257 -0.291122,1.996262 -0.145561,1.143692 -0.270327,2.432945 -0.124766,1.268458 -0.228738,2.536917 -0.103972,1.268458 -0.166355,2.391356 -0.06238,1.102103 -0.08318,1.871496 0.790187,0.187149 1.746729,0.374299 0.956543,0.187149 2.058646,0.353504 z m 14.410519,1.060515 q -0.08318,-4.49159 -0.499066,-8.172199 -0.395093,-3.701403 -0.914953,-6.279909 -0.145561,0.623832 -0.270328,1.684347 -0.124766,1.060514 -0.249532,2.391356 -0.103972,1.330841 -0.207944,2.786449 -0.08318,1.434814 -0.166356,2.848833 -0.08318,1.414019 -0.14556,2.640889 -0.04159,1.206075 -0.08318,2.058645 0.623832,0.02079 1.247664,0.02079 0.644626,0.02079 1.289253,0.02079 z m -2.994394,-0.06238 q -0.08318,-1.03972 -0.187149,-2.516123 -0.08318,-1.497196 -0.18715,-3.181543 -0.103972,-1.70514 -0.249533,-3.347898 -0.124766,-1.642758 -0.291121,-3.015188 -0.145561,-1.37243 -0.353505,-2.204206 -0.166355,0.790187 -0.311916,2.141823 -0.145561,1.351636 -0.270327,2.994393 -0.124767,1.642758 -0.228739,3.327104 -0.103972,1.684347 -0.187149,3.181543 -0.06238,1.497197 -0.103972,2.516123 0.582243,0.02079 1.164486,0.04159 0.603038,0.04159 1.206075,0.06238 z m -2.828038,-0.124767 q -0.08318,-1.060514 -0.18715,-2.536916 -0.103972,-1.497197 -0.207944,-3.160749 -0.103972,-1.663552 -0.249532,-3.285515 -0.124767,-1.642758 -0.291122,-2.973599 -0.145561,-1.351636 -0.33271,-2.183412 -0.166356,0.769393 -0.311916,2.100234 -0.145561,1.310047 -0.270328,2.911216 -0.103972,1.601169 -0.207944,3.264721 -0.103972,1.663552 -0.187149,3.160748 -0.06238,1.476403 -0.103972,2.536917 0.561449,0.04159 1.143692,0.08318 0.603037,0.04159 1.206075,0.08318 z m -2.848833,-0.207944 q -0.08318,-1.081309 -0.187149,-2.557711 -0.08318,-1.476402 -0.18715,-3.11916 -0.103972,-1.642757 -0.249533,-3.223132 -0.124766,-1.580374 -0.291121,-2.890421 -0.145561,-1.310047 -0.332711,-2.121029 -0.145561,0.748599 -0.291121,1.996262 -0.145561,1.247664 -0.270328,2.78645 -0.103972,1.538786 -0.207944,3.160749 -0.08318,1.621963 -0.166355,3.11916 -0.08318,1.497196 -0.124766,2.640888 0.561449,0.06238 1.143692,0.103972 0.582243,0.06238 1.164486,0.103972 z m -2.890421,-0.291121 q -0.08318,-1.164487 -0.166356,-2.640889 -0.08318,-1.497197 -0.187149,-3.077571 -0.103972,-1.601169 -0.228738,-3.11916 -0.124767,-1.517991 -0.270328,-2.765655 -0.14556,-1.247664 -0.33271,-2.017057 -0.145561,0.70701 -0.291122,1.913085 -0.124766,1.206075 -0.249532,2.682477 -0.103972,1.476403 -0.207944,3.056777 -0.08318,1.55958 -0.166356,3.035982 -0.06238,1.476403 -0.124766,2.640889 0.540654,0.08318 1.081309,0.145561 0.561449,0.08318 1.143692,0.145561 z"
         style="font-family:Assyrian;-inkscape-font-specification:Assyrian"
         id="path1656" />
      <path
         d="m 60.653591,53.092286 q 0,-0.395094 0,-0.769393 0,-0.374299 -0.02079,-0.727804 -2.349767,-0.790187 -4.138085,-1.268458 -1.788319,-0.478271 -3.160749,-0.727804 -1.37243,-0.270327 -2.495328,-0.374299 -1.102103,-0.103972 -2.121029,-0.145561 -0.998131,-0.04159 -2.058645,-0.103972 1.22687,-2.037851 1.455608,-4.262852 0.873365,0.603038 1.684346,1.185281 0.831776,0.561449 1.767524,1.143692 0.935748,0.582243 2.162618,1.206075 1.247664,0.603038 2.911216,1.289253 1.684346,0.686215 3.992524,1.476402 -0.02079,-1.684346 -0.124766,-3.202337 -0.08318,-1.517992 -0.207944,-2.890422 -1.143692,0.124766 -2.349767,0.311916 -1.185281,0.18715 -2.121029,0.374299 -0.914954,0.18715 -1.247664,0.311916 0.02079,-0.311916 0.02079,-0.644626 0.02079,-0.353505 0.02079,-0.686215 0,-0.353505 -0.02079,-0.686215 0,-0.332711 -0.02079,-0.665421 0.33271,0.124766 1.247664,0.33271 0.914954,0.18715 2.07944,0.374299 1.185281,0.18715 2.328973,0.311916 -0.166356,-1.663552 -0.395094,-3.056776 -0.207944,-1.41402 -0.436682,-2.620095 -2.911216,1.102103 -4.969862,2.121029 -2.058645,0.998131 -3.555842,1.933879 -1.497197,0.914954 -2.765655,1.788319 -0.228738,-2.225001 -1.455608,-4.262852 1.538786,-0.08318 3.285515,-0.249533 1.767524,-0.166355 4.034114,-0.623832 2.266589,-0.457477 5.281777,-1.351636 -0.145561,-0.686215 -0.291122,-1.310047 -0.14556,-0.623832 -0.291121,-1.164487 1.060514,0.249533 2.183412,0.249533 1.122897,0 2.308178,-0.249533 -0.436682,1.580375 -0.873365,3.805376 -0.415888,2.204206 -0.707009,5.115422 0.103972,0.02079 0.228738,0.02079 0.124766,0 0.228738,0 v 0.353505 l -0.499065,0.04159 q -0.166355,1.788318 -0.270327,3.867758 -0.08318,2.058645 -0.08318,4.429207 z"
         style="font-family:Assyrian;-inkscape-font-specification:Assyrian"
         id="path1658" />
    </g>
  </g>
</svg>
